<svg width="412" height="485" viewBox="0 0 412 485" fill="none" xmlns="http://www.w3.org/2000/svg">
<path d="M219.075 249.904V12.958C219.075 5.80148 213.274 0 206.117 0C198.961 0 193.159 5.8015 193.159 12.958V249.904C193.159 257.06 198.961 262.862 206.117 262.862C213.274 262.862 219.075 257.06 219.075 249.904Z" fill="black"/>
<path d="M252.94 270.24L350.477 143.126C354.896 137.368 353.81 129.117 348.051 124.698C342.293 120.279 334.042 121.366 329.623 127.124L232.085 254.238C227.667 259.997 228.753 268.247 234.511 272.666C240.27 277.085 248.521 275.999 252.94 270.24Z" fill="black"/>
<path d="M181.711 253.133L84.3646 126.269C79.9458 120.51 71.6953 119.424 65.9365 123.842C60.1778 128.261 59.0916 136.512 63.5104 142.271L160.857 269.135C165.276 274.893 173.526 275.98 179.285 271.561C185.044 267.142 186.13 258.891 181.711 253.133Z" fill="black"/>
<path d="M268.255 306.668L399.431 266.563C406.373 264.441 410.28 257.093 408.157 250.152C406.035 243.21 398.687 239.303 391.746 241.426L260.57 281.53C253.628 283.652 249.722 291 251.844 297.941C253.966 304.883 261.314 308.79 268.255 306.668Z" fill="black"/>
<path d="M151.933 280.234L20.2541 239.976C13.3126 237.853 5.96491 241.76 3.84266 248.702C1.72042 255.643 5.62724 262.991 12.5688 265.113L144.248 305.372C151.189 307.494 158.537 303.587 160.659 296.645C162.782 289.704 158.875 282.356 151.933 280.234Z" fill="black"/>
<path d="M219.075 472.041V370.228C219.075 363.072 213.274 357.27 206.117 357.27C198.961 357.27 193.159 363.072 193.159 370.228V472.041C193.159 479.197 198.961 484.999 206.117 484.999C213.274 484.999 219.075 479.197 219.075 472.041Z" fill="black"/>
<path d="M292.9 404.465L251.884 351.967C247.415 346.247 239.156 345.233 233.436 349.702C227.716 354.171 226.701 362.43 231.17 368.15L272.186 420.648C276.655 426.368 284.915 427.382 290.635 422.913C296.355 418.444 297.369 410.185 292.9 404.465Z" fill="black"/>
<path d="M142.076 421.137L183.897 367.609C188.366 361.889 187.352 353.629 181.632 349.16C175.912 344.692 167.652 345.706 163.183 351.426L121.363 404.953C116.894 410.673 117.908 418.933 123.628 423.402C129.348 427.871 137.607 426.857 142.076 421.137Z" fill="black"/>
<path d="M364.061 347.329L266.48 317.496C259.539 315.374 252.191 319.281 250.069 326.222C247.947 333.164 251.854 340.511 258.795 342.634L356.375 372.467C363.317 374.589 370.664 370.682 372.787 363.741C374.909 356.799 371.002 349.452 364.061 347.329Z" fill="black"/>
<path d="M54.0584 374.328L152.819 344.134C159.761 342.012 163.667 334.664 161.545 327.723C159.423 320.781 152.075 316.874 145.134 318.997L46.3731 349.191C39.4315 351.313 35.5247 358.661 37.647 365.602C39.7692 372.544 47.1168 376.45 54.0584 374.328Z" fill="black"/>
<circle cx="207.043" cy="309.91" r="62.7678" fill="black"/>
</svg>
